<?xml version="1.0" standalone="no"?>
<!DOCTYPE svg PUBLIC "-//W3C//DTD SVG 20010904//EN"
 "http://www.w3.org/TR/2001/REC-SVG-20010904/DTD/svg10.dtd">
<svg version="1.0" xmlns="http://www.w3.org/2000/svg"
 width="512.000000pt" height="512.000000pt" viewBox="0 0 512.000000 512.000000"
 preserveAspectRatio="xMidYMid meet">
<metadata>
Created by potrace 1.11, written by Peter Selinger 2001-2013
</metadata>
<g transform="translate(0.000000,512.000000) scale(0.100000,-0.100000)"
fill="#000000" stroke="none">
<path d="M3928 3985 c-2 -1 -34 -6 -73 -10 -160 -16 -177 -19 -315 -50 -239
-54 -481 -152 -650 -263 -119 -79 -290 -252 -372 -377 -125 -191 -176 -306
-227 -510 -29 -118 -41 -174 -80 -387 -30 -161 -75 -232 -154 -243 -23 -3 -51
-3 -62 -1 -11 3 -25 5 -32 5 -27 2 -88 69 -114 126 -30 67 -47 88 -101 129
-44 33 -129 45 -195 27 -47 -13 -108 -75 -118 -120 -6 -30 -123 -127 -136
-114 -4 5 -10 22 -13 38 -6 30 -5 31 49 50 36 12 67 31 86 52 29 33 37 53 21
53 -32 0 -115 -35 -141 -59 l-31 -29 0 49 c0 45 2 49 24 49 37 0 78 18 109 48
36 34 34 42 -8 42 -45 0 -100 -22 -114 -47 -9 -15 -11 -11 -9 21 1 21 7 40 13
41 5 2 36 8 67 15 41 8 65 20 88 43 16 17 29 36 27 41 -7 20 -84 16 -130 -7
l-44 -23 29 70 c15 38 34 76 41 85 10 14 10 14 -5 3 -9 -7 -29 -42 -44 -77
-25 -58 -44 -82 -44 -56 0 17 -62 69 -102 84 l-41 16 6 -34 c7 -45 32 -76 85
-110 42 -27 51 -50 36 -90 -6 -14 -8 -13 -21 5 -16 23 -78 53 -130 63 -32 6
-32 6 -21 -24 12 -35 64 -72 126 -90 41 -12 42 -13 41 -53 0 -23 -3 -35 -6
-28 -8 21 -77 50 -130 55 -45 4 -50 2 -46 -14 7 -27 50 -51 122 -69 l65 -16
11 -51 c6 -28 21 -67 34 -88 21 -36 160 -205 169 -205 4 0 -46 69 -57 80 -10
8 -66 83 -83 111 l-16 26 46 -8 c26 -4 66 -8 89 -8 36 -1 45 -6 71 -39 39 -48
136 -232 157 -297 71 -211 172 -322 399 -439 177 -91 389 -144 580 -144 153 0
219 24 338 122 69 58 98 55 191 -23 98 -80 141 -101 197 -94 44 5 113 34 124
51 3 5 -16 19 -42 31 -59 29 -158 99 -196 140 -35 36 -33 36 48 14 41 -11 102
-17 186 -17 114 -1 130 1 180 25 l55 26 -55 17 c-141 44 -304 148 -340 216
-11 21 -11 22 11 16 124 -35 153 -40 244 -41 89 0 108 3 168 29 37 15 67 31
67 35 0 4 -45 15 -100 25 -64 12 -127 31 -172 53 -286 137 -550 383 -535 497
6 47 19 65 90 126 93 80 112 111 112 190 1 88 27 130 82 130 16 0 19 8 19 49
0 65 23 98 71 106 55 9 66 17 83 63 13 39 13 43 -7 64 -28 30 -60 103 -65 147
l-3 35 175 51 c322 95 314 92 364 144 24 27 57 73 72 102 64 127 168 253 260
314 40 27 76 41 127 50 40 7 67 14 61 14 -5 1 -21 11 -34 23 -23 22 -31 22
-261 24 -131 1 -239 1 -241 -1z"/>
</g>
</svg>
